<svg width="108" height="134" viewBox="0 0 108 134" fill="none" xmlns="http://www.w3.org/2000/svg">
<path d="M87.3334 0.333252C98.3791 0.333252 107.333 9.28756 107.333 20.3333V86.9999C107.333 92.357 105.209 97.2052 101.78 100.795C101.489 101.195 101.159 101.577 100.771 101.915L100.777 101.922L100.79 101.909C100.796 101.904 100.805 101.9 100.81 101.896L100.869 101.837C100.877 101.829 100.875 101.838 100.855 101.857C100.813 101.899 100.707 102.002 100.563 102.169C100.271 102.507 99.8227 103.084 99.3581 103.888C98.442 105.474 97.4375 107.983 97.4375 111.479C97.4378 113.967 98.7159 116.3 100.608 118.341C101.514 119.318 102.435 120.092 103.128 120.613C103.468 120.87 103.741 121.056 103.909 121.167C103.975 121.21 104.028 121.239 104.059 121.258L104.964 121.902C106.923 123.554 107.791 126.222 107.099 128.758C106.307 131.656 103.672 133.667 100.667 133.667H20.6667C9.62099 133.667 0.666687 124.712 0.666687 113.667C0.666687 112.945 0.70291 112.233 0.777364 111.531C0.706785 111.142 0.666687 110.742 0.666687 110.333V20.3333C0.666687 9.28756 9.62099 0.333252 20.6667 0.333252H87.3334ZM20.6667 107C16.9848 107 14 109.985 14 113.667C14 117.348 16.9848 120.333 20.6667 120.333H86.0573C84.9017 117.788 84.1043 114.825 84.1042 111.479C84.1042 109.893 84.2278 108.4 84.4362 107H20.6667ZM20.6667 13.6666C16.9848 13.6666 14 16.6514 14 20.3333V94.8254C16.0871 94.087 18.3267 93.6666 20.6667 93.6666V13.6666ZM34 93.6666H87.3334C91.0153 93.6666 94 90.6818 94 86.9999V20.3333C94 16.6514 91.0153 13.6666 87.3334 13.6666H34V93.6666Z" fill="white"/>
</svg>
