<svg width="20" height="20" viewBox="0 0 20 20" fill="none" xmlns="http://www.w3.org/2000/svg">
<path d="M17.0573 1.05715C17.578 0.536451 18.4223 0.536451 18.943 1.05715C19.4636 1.57786 19.4637 2.42225 18.943 2.94289L11.8854 9.99953L18.943 17.0571C19.4636 17.5779 19.4637 18.4222 18.943 18.9429C18.4224 19.4635 17.578 19.4634 17.0573 18.9429L9.99965 11.8853L2.94301 18.9429C2.42237 19.4635 1.57798 19.4634 1.05727 18.9429C0.536573 18.4222 0.536573 17.5778 1.05727 17.0571L8.11391 9.99953L1.05727 2.94289C0.536573 2.42219 0.536573 1.57785 1.05727 1.05715C1.57797 0.536451 2.42232 0.536451 2.94301 1.05715L9.99965 8.11379L17.0573 1.05715Z" fill="#B5B5B5"/>
</svg>
