<svg width="28" height="29" viewBox="0 0 28 29" fill="none" xmlns="http://www.w3.org/2000/svg">
<path d="M14 0.450317C14.8865 0.450317 15.7504 0.729701 16.4688 1.24915L25.7432 7.95813C26.2871 8.35198 26.7298 8.8698 27.0352 9.4679C27.3405 10.066 27.5001 10.728 27.5 11.3995V26.9484C27.4996 27.3248 27.3499 27.6858 27.084 27.9523C26.8181 28.2188 26.4575 28.371 26.0811 28.3722C26.0457 28.3721 26.0106 28.369 25.9756 28.3663H1.84961C1.49178 28.3662 1.14858 28.2238 0.895512 27.9708C0.642338 27.7177 0.500004 27.3738 0.500004 27.0157C0.500007 27.0047 0.500707 26.9936 0.500981 26.9825C0.50071 26.9712 0.500004 26.9597 0.500004 26.9484V11.3995C0.499034 10.7269 0.657204 10.0636 0.961919 9.46399C1.26671 8.86432 1.70992 8.34504 2.25391 7.94934L11.5313 1.24915C12.2496 0.729697 13.1135 0.45032 14 0.450317ZM14 3.29504C13.7086 3.29505 13.4246 3.38694 13.1885 3.55774L3.91114 10.2667C3.73233 10.3964 3.58647 10.5669 3.48633 10.7638C3.3862 10.9607 3.33446 11.1787 3.33497 11.3995V25.6661H8.14942V16.2003C8.14942 15.372 8.83393 14.7005 9.67872 14.7003H18.0928C18.9377 14.7003 19.6231 15.3719 19.6231 16.2003V25.6661H24.6631V11.3995C24.6629 11.1792 24.6108 10.962 24.5107 10.7657C24.4107 10.5695 24.2661 10.3992 24.0879 10.2697L14.8115 3.55774C14.5754 3.38693 14.2914 3.29504 14 3.29504ZM11.209 17.7003V25.6661H16.5635V17.7003H11.209Z" fill="white"/>
</svg>
