<svg width="120" height="83" viewBox="0 0 120 83" fill="none" xmlns="http://www.w3.org/2000/svg">
	<path fill-rule="evenodd" clip-rule="evenodd" d="M61.418 81.0421C44.8638 81.0421 30.195 74.5623 21.1824 64.626L20.6597 64.5903L20.6586 64.5902C19.9335 64.5405 19.2258 64.4921 18.5305 64.4498C27.7621 75.6002 43.5402 82.9655 61.418 82.9655C79.3957 82.9655 95.25 75.5193 104.453 64.2546C104.135 64.2763 103.81 64.2987 103.479 64.3215L103.469 64.3223C102.932 64.3593 102.38 64.3974 101.811 64.4355C92.8171 74.4814 78.0674 81.0421 61.418 81.0421ZM61.418 2.12293C79.1767 2.12293 94.7929 9.59777 103.553 20.7957C104.1 20.8208 104.641 20.8478 105.17 20.8743L105.171 20.8743C105.446 20.8881 105.719 20.9017 105.986 20.9148C97.0782 8.54558 80.4431 0.204224 61.418 0.204224C42.5309 0.204224 25.9815 8.42655 17.0212 20.6529C17.4273 20.6376 17.8213 20.6232 18.2003 20.6094L18.2021 20.6093L18.2047 20.6092C18.6461 20.5931 19.0672 20.5778 19.4636 20.5625C28.2668 9.49779 43.7735 2.12293 61.418 2.12293ZM48.7807 76.1415C52.6134 76.9699 56.6364 77.427 60.7976 77.4603V69.376C55.1034 69.4284 49.6806 70.1473 45.1718 71.409C46.762 73.6848 48.0904 75.3226 48.7807 76.1415ZM39.7823 73.38C42.02 74.2893 44.3625 75.0558 46.8049 75.6748C46.0288 74.6988 45.0338 73.3847 43.9197 71.7707C42.4152 72.2516 41.0297 72.7896 39.7823 73.38ZM40.0394 65.5291C33.3264 65.272 28.0368 65.0244 26.0563 64.9292C29.5032 68.0334 33.6216 70.6805 38.2398 72.723C39.6776 71.9565 41.3487 71.2757 43.1817 70.6805C42.1724 69.157 41.0964 67.4335 40.0394 65.5291ZM62.0212 69.3807V77.4507C66.011 77.4079 69.8817 76.9746 73.5667 76.1938C74.2761 75.3416 75.6473 73.6609 77.2708 71.3232C72.8573 70.1187 67.5821 69.4331 62.0212 69.3807ZM43.6436 65.6672C42.9104 65.6433 42.1867 65.6148 41.4868 65.5862C42.4771 67.324 43.4769 68.9094 44.4101 70.2997C49.1235 68.9285 54.8273 68.1381 60.7976 68.0953V65.9195C60.1263 65.9242 59.455 65.9242 58.7884 65.9242C53.2275 65.9242 48.2808 65.8385 43.6436 65.6672ZM79.2609 70.5853C81.1796 71.19 82.9079 71.8994 84.4076 72.6945C89.0782 70.6139 93.2489 67.9239 96.7149 64.7626C92.1062 65.053 87.0929 65.3291 82.3509 65.5243C81.313 67.3811 80.256 69.0856 79.2609 70.5853ZM38.6774 19.9255L38.6775 19.9255C38.7347 19.9242 38.7932 19.923 38.8492 19.923C40.2489 17.1854 41.7344 14.7335 43.1198 12.6386C41.2678 12.0197 39.5871 11.3055 38.1207 10.5057C36.4401 11.2531 34.8309 12.0863 33.2978 12.9814C34.3976 13.329 35.3641 13.9146 36.164 14.7287C37.4447 16.0189 38.2636 17.8567 38.5207 19.9278C38.5695 19.9278 38.6228 19.9266 38.6774 19.9255ZM75.533 75.7414C78.0897 75.1034 80.5464 74.2988 82.8889 73.3466C81.5843 72.7277 80.1132 72.1706 78.5182 71.685C77.3756 73.3609 76.3281 74.7321 75.533 75.7414ZM83.6221 19.966C89.183 20.1278 95.0867 20.3326 98.8669 20.5325C95.12 16.5523 90.3637 13.2005 84.8695 10.6867C83.2888 11.5103 81.4748 12.2435 79.4847 12.872C80.8226 14.9002 82.2652 17.295 83.6221 19.966ZM68.6724 15.0192C69.6436 16.2713 70.2435 17.8139 70.4578 19.5898C70.782 19.5987 71.1579 19.6096 71.5733 19.6216L71.5743 19.6216C72.4821 19.6478 73.5787 19.6794 74.7379 19.7088C76.469 19.7586 78.4865 19.8145 80.6369 19.8742L80.6382 19.8742L82.2271 19.9183C80.9083 17.3997 79.5276 15.1477 78.2516 13.2433C75.3474 14.067 72.1003 14.6669 68.6724 15.0192ZM80.8987 65.572C78.9086 65.653 76.9756 65.7101 75.1617 65.7387C71.2243 65.8101 66.7061 65.891 62.0212 65.9148V68.1001C67.863 68.1477 73.4049 68.9 78.0278 70.214C78.9562 68.8429 79.9323 67.286 80.8987 65.572ZM54.0512 19.6754C54.194 18.7565 54.3702 17.5139 54.4892 16.5188C54.5511 15.957 54.6654 15.4714 54.8273 15.0381C51.0422 14.6573 47.481 13.9717 44.3339 13.0242C43.0199 14.9905 41.5915 17.3139 40.2442 19.8992C42.8339 19.8659 46.5636 19.8019 49.6656 19.7486L49.6665 19.7486C51.4459 19.718 53.0186 19.691 54.0512 19.6754ZM45.1242 11.8673C48.2332 12.7671 51.7659 13.4194 55.5128 13.7526C57.003 11.8101 59.5978 11.8101 60.6262 11.8101H60.7976V5.71599C56.6364 5.75408 52.6134 6.21114 48.7807 7.0348C48.019 7.95844 46.6811 9.62957 45.1242 11.8673ZM77.4613 12.0672C75.6568 9.47241 74.1857 7.69177 73.5763 6.98714C69.8912 6.20633 66.0205 5.76831 62.0212 5.7207V11.8339C64.1113 11.8815 66.0205 12.5623 67.4821 13.7812C71.0624 13.4764 74.438 12.8908 77.4613 12.0672ZM83.2793 9.98192C80.8226 8.96782 78.2468 8.11559 75.5711 7.43952C76.3805 8.45838 77.4803 9.9105 78.7134 11.7054C80.3703 11.2007 81.9033 10.6247 83.2793 9.98192ZM46.8097 7.49663C44.3387 8.12508 41.9677 8.9059 39.7014 9.82478C40.9678 10.439 42.3724 10.996 43.8864 11.4864C45.0005 9.86287 46.0193 8.51073 46.8097 7.49663ZM64.1408 32.0918C65.5168 32.1013 68.9638 32.1108 68.9638 32.1108C69.1113 32.1108 69.2447 32.1775 69.3304 32.2822C69.4399 32.4013 69.4684 32.5488 69.4541 32.6964C69.2113 34.7056 66.8356 51.8501 66.6642 53.0451C66.6166 53.3022 66.4118 53.4832 66.169 53.4879C65.7704 53.4903 65.3713 53.493 64.9719 53.4956C63.7686 53.5037 62.5639 53.5117 61.3699 53.5117C61.2223 53.5117 61.0795 53.4403 60.989 53.3356C60.8985 53.2213 60.8509 53.069 60.8747 52.9214C60.8747 52.9214 63.5314 33.463 63.6409 32.5393C63.679 32.2822 63.8932 32.0918 64.1408 32.0918ZM72.0537 56.5207C73.6201 46.0369 74.8246 37.4004 75.8577 29.3399C75.9958 28.2497 75.7673 27.2308 75.2102 26.4547C74.6818 25.7406 73.9343 25.3407 73.0963 25.3311C70.454 25.2835 67.8163 25.2645 65.1787 25.2502C65.0359 25.2502 64.8978 25.1835 64.8121 25.0693C64.7074 24.9502 64.674 24.8074 64.6931 24.6646C64.8121 23.7314 65.1121 21.3699 65.1121 21.3699C65.2597 20.2606 65.0359 19.2227 64.4884 18.4609C63.9647 17.742 63.2315 17.3469 62.3983 17.3373H59.5321C59.4324 18.0746 59.2383 19.5008 58.9802 21.3975C57.785 30.1821 55.2165 49.0599 54.2807 56.3351C54.1426 57.4492 54.3711 58.4537 54.9187 59.2107C55.4376 59.9487 56.1994 60.3581 57.0659 60.3629C60.8652 60.3772 64.7264 60.3629 68.4448 60.301C70.1588 60.2724 71.749 58.6108 72.0537 56.5207ZM50.1386 56.5826C51.3098 47.2272 52.5858 37.9146 53.7903 29.2447C53.9474 28.1401 53.7332 27.107 53.1904 26.35C52.6762 25.6596 51.9525 25.2692 51.1241 25.2692C47.282 25.3121 43.4255 25.374 39.6119 25.4644C37.8503 25.5025 36.2173 27.1736 35.8935 29.259C34.4366 38.8334 33.2797 47.5319 32.3513 55.8637C32.2275 56.8778 32.4799 57.8586 33.0417 58.6108C33.5987 59.3631 34.3843 59.7916 35.2413 59.8297C39.1072 59.9963 42.9399 60.1296 46.644 60.2105H46.7059C48.3722 60.2105 49.8767 58.6108 50.1386 56.5826ZM41.9258 32.1726C43.535 32.1536 45.1442 32.1441 46.7535 32.1345C46.8915 32.1203 47.0439 32.2012 47.1391 32.3202C47.2391 32.4297 47.2724 32.5868 47.2439 32.7344C46.9201 34.796 44.6777 51.5691 44.5586 52.907C44.5348 53.1736 44.3206 53.3736 44.0682 53.3736H44.0587C42.459 53.345 40.8545 53.3117 39.2596 53.2688C39.1072 53.2688 38.9787 53.2069 38.8882 53.0974C38.8025 52.9974 38.7502 52.8451 38.7692 52.7118C38.9549 50.6883 41.2021 33.9533 41.4497 32.5916C41.4878 32.3488 41.6925 32.1726 41.9258 32.1726ZM8.87459 33.2393C8.9222 33.006 9.12693 32.8441 9.3507 32.8393C10.2458 32.8155 15.1877 32.7917 15.1877 32.7917C15.1877 32.7917 14.9354 34.3295 14.9306 34.4676C14.9449 35.3722 15.6258 36.1102 16.4447 36.1102L20.7724 36.0768C21.0173 34.4942 21.2734 32.9088 21.53 31.3206C21.6076 30.84 21.6853 30.3591 21.7627 29.878C21.9341 28.8067 21.7437 27.8402 21.2247 27.1451C20.6296 26.3691 19.7441 26.2072 19.1156 26.2072C16.2399 26.2072 11.3218 26.4072 7.49865 26.7976C5.7323 26.9785 3.39939 28.6686 3.05183 30.5969C1.37118 39.8619 0 51.3646 0 53.9641C0 54.9068 0.204725 56.1637 0.776051 56.854C1.33785 57.5396 2.31387 57.7872 3.29464 57.9634C6.4655 58.4966 12.193 58.9679 14.645 58.9679H14.8259C16.7874 58.9441 17.7539 58.0062 18.1396 55.74C18.6778 52.4805 19.6799 44.1423 19.9523 41.8753C19.9835 41.6157 20.0052 41.4357 20.0154 41.3521C20.1059 40.7093 20.0345 40.238 19.7917 39.9476C19.5489 39.6619 19.0775 39.5096 18.4443 39.5096L11.3361 39.5191C11.3177 39.6376 11.2994 39.7554 11.2813 39.8725C11.0828 41.1527 10.896 42.3578 10.7171 43.6707C10.6457 44.1659 10.7885 44.6896 11.117 45.08C11.3789 45.4085 11.7312 45.5942 12.0883 45.6085L13.0405 45.6418C13.1833 45.6418 13.3166 45.7037 13.4119 45.8227C13.5118 45.937 13.5499 46.0893 13.5261 46.2464C13.4663 46.6953 13.1826 48.2898 12.9174 49.7801C12.7607 50.6607 12.6105 51.5049 12.5168 52.0549C12.4644 52.3168 12.2454 52.4929 11.9883 52.4882C11.0266 52.4453 7.41771 52.2311 6.76545 52.1882C6.48455 52.1787 6.26078 51.9216 6.27982 51.6312C6.36076 49.7601 8.57464 34.4628 8.87459 33.2393ZM90.3456 59.5535C92.0691 59.4535 93.7402 57.7633 94.0878 55.7732C95.9351 45.1847 97.3682 35.4578 98.4537 26.0595L95.2495 25.9357C93.5546 25.9357 92.0834 27.426 91.8453 29.397C90.9312 36.7481 89.8552 44.3134 88.5221 52.5405C88.4888 52.7833 88.2841 52.9642 88.0508 52.9737L83.504 53.0975C83.3516 53.0975 83.2088 53.0451 83.1136 52.9214C83.0184 52.8166 82.9707 52.6547 82.9946 52.5071C84.2753 44.3181 85.3417 36.8052 86.2654 29.5161C86.3939 28.4401 86.1559 27.4402 85.5941 26.688C85.0704 25.9738 84.3038 25.5691 83.4516 25.5406C82.4901 25.512 81.5285 25.493 80.5669 25.4739L80.5664 25.4739C79.4476 34.6247 78.0907 44.4229 76.2958 56.2446C76.1339 57.3063 76.3243 58.2823 76.8433 59.0155C77.3432 59.6868 78.024 60.0486 78.8429 60.0486L78.9381 60.0391C82.7375 59.9153 86.5701 59.7487 90.3456 59.5535ZM119.202 36.1482C119.469 34.4104 119.721 32.625 119.974 30.8205C120.088 29.8921 119.826 29.178 119.288 28.4591C118.817 27.8258 117.774 27.2069 116.922 27.0974C114.855 26.826 110.775 26.507 105.7 26.4071C103.972 26.4071 102.491 27.8401 102.258 29.735C102.237 29.9396 102.079 30.9734 101.863 32.3945C101.388 35.5048 100.631 40.4703 100.406 42.6565C100.21 44.5276 101.491 45.7845 103.243 45.7845C103.243 45.7845 109.518 45.7655 110.909 45.7179C111.056 45.7131 111.213 45.775 111.318 45.8988C111.413 46.0226 111.456 46.1844 111.428 46.3416C111.194 47.7508 110.647 50.7693 110.475 51.7025C110.423 51.9405 110.228 52.1215 109.994 52.1357C108.433 52.2215 106.89 52.3024 105.338 52.3786C105.181 52.3928 105.029 52.3214 104.929 52.2119C104.824 52.0834 104.772 51.9215 104.795 51.7644C104.795 51.7644 104.948 51.0026 104.948 50.6551C104.938 49.7838 104.334 49.0934 103.558 49.0934C102.053 49.1506 100.606 49.1982 99.144 49.2458C99.111 49.4453 99.078 49.6449 99.045 49.8446C98.735 51.7186 98.4231 53.6039 98.0918 55.497C97.9062 56.5112 98.0728 57.43 98.5775 58.0823C99.044 58.7155 99.7772 59.025 100.625 58.9821C100.625 58.9821 106.79 58.6631 112.113 58.0537C113.77 57.8776 115.603 56.0779 116.108 54.1354C116.898 51.1169 117.488 48.2936 118.131 42.7946C118.283 41.5139 118.05 40.9378 117.55 40.3331C117.041 39.7094 116.279 39.3571 115.446 39.3571H107.585C107.438 39.3571 107.3 39.2952 107.195 39.1762C107.104 39.0572 107.052 38.9 107.085 38.7477C107.128 38.4194 107.359 37.0289 107.576 35.7157C107.769 34.5533 107.952 33.4515 107.985 33.2011C108.023 32.9345 108.228 32.7345 108.509 32.7345C109.59 32.7678 113.175 32.8488 113.175 32.8488C113.332 32.8583 113.494 32.9345 113.58 33.0678C113.679 33.2011 113.703 33.3772 113.665 33.5343C113.665 33.5343 113.456 34.1818 113.465 34.4961C113.508 35.3673 114.208 36.091 115.008 36.1005C115.844 36.1062 116.677 36.117 117.512 36.1278C118.074 36.1351 118.637 36.1424 119.202 36.1482ZM28.0426 59.4726C29.209 47.9509 30.8849 35.6293 33.1464 21.8127C33.3226 20.7272 33.1416 19.7417 32.6274 19.0513C32.1704 18.4229 31.5229 18.0991 30.7564 18.0991C30.7564 18.0991 28.6567 18.2039 27.6902 18.2562C25.2859 31.7062 23.5196 43.8421 22.2912 55.3448C22.1912 56.3827 22.4436 57.3587 23.0244 58.1014C23.5767 58.8299 24.348 59.2488 25.2002 59.306C25.5814 59.329 25.9619 59.3504 26.3425 59.3719C26.9078 59.4037 27.4735 59.4356 28.0426 59.4726Z" fill="#E8E8E8">
	</path>
</svg>
