<svg width="124" height="124" viewBox="0 0 124 124" fill="none" xmlns="http://www.w3.org/2000/svg">
<path fill-rule="evenodd" clip-rule="evenodd" d="M14 57.3334C14 33.4011 33.401 14.0001 57.3333 14.0001C81.2657 14.0001 100.667 33.4011 100.667 57.3334C100.667 81.2658 81.2657 100.667 57.3333 100.667C33.401 100.667 14 81.2658 14 57.3334ZM57.3333 0.666748C26.0372 0.666748 0.666656 26.0373 0.666656 57.3334C0.666656 88.6296 26.0372 114 57.3333 114C70.5791 114 82.7635 109.455 92.4121 101.84L112.619 122.047C115.223 124.651 119.444 124.651 122.047 122.047C124.651 119.444 124.651 115.223 122.047 112.619L101.84 92.4122C109.455 82.7635 114 70.5792 114 57.3334C114 26.0373 88.6295 0.666748 57.3333 0.666748Z" fill="white"/>
</svg>
